<?xml version="1.0" encoding="utf-8"?>
<!-- Generator: Adobe Illustrator 24.1.1, SVG Export Plug-In . SVG Version: 6.00 Build 0)  -->
<svg version="1.1" id="Layer_1" xmlns="http://www.w3.org/2000/svg" xmlns:xlink="http://www.w3.org/1999/xlink" x="0px" y="0px"
	 viewBox="0 0 129.5 40" style="enable-background:new 0 0 129.5 40;" xml:space="preserve">
<style type="text/css">
	.st0{fill-rule:evenodd;clip-rule:evenodd;fill:#DB834E;}
	.st1{fill:#FFFFFF;}
</style>
<path class="st0" d="M20,17.2c-0.1,0.3-0.2,0.4-0.3,0.7c-0.1,0.5-0.2,0.6-0.4,1c-0.2,0.4-0.1,0.5-0.3,0.9c-0.2,0.3-0.2,0.3-0.2,0.6
	c0,0.4-0.2,0.6-0.4,1c-0.1,0.3-0.1,0.4-0.2,0.7c-0.1,0.4-0.1,0.4-0.2,0.7c0,0.1,0.1,0,0.1,0c0.4-0.2,0.8-0.5,1.2-0.8
	c0.2-0.1,0.4-0.3,0.6-0.4c0.3-0.2,0.4,0,0.6,0.1c0.2,0.2,0.3,0.2,0.5,0.3c0.2,0.1,0.3,0.2,0.5,0.4c0.2,0.1,0.4,0.2,0.6,0.3
	c0-0.2-0.1-0.4-0.2-0.6c-0.1-0.4-0.1-0.4-0.3-0.7c-0.2-0.3-0.1-0.5-0.3-0.8c-0.1-0.2-0.1-0.3-0.1-0.4c-0.1-0.4-0.3-0.4-0.4-0.8
	c-0.1-0.3,0-0.3-0.2-0.6c-0.2-0.3-0.1-0.4-0.2-0.8C20.4,17.9,20.1,17.6,20,17.2L20,17.2z M25.8,20.2c0.2,0.1,0.3,0.1,0.5,0.2
	s0.4,0.2,0.5,0.4c0.1,0.3-0.1,0.6-0.2,0.9s-0.1,0.3-0.2,0.6c-0.1,0.2-0.1,0.3-0.2,0.5c-0.1,0.3-0.4,0.9-0.6,1.2
	c-0.1,0.2-0.3,0.3-0.4,0.5c-0.2,0.3-0.4-0.1-0.6-0.1h-0.3c0,0,0,0.1,0,0.2s0.1,0.5,0.1,0.6s-0.2,0.2-0.3,0.3
	c-0.2,0.2-0.5,0.3-0.7,0.5c-0.3,0.2-0.7,0.3-1,0.5c-0.4,0.2-0.7,0.3-1.1,0.4c-0.1,0-0.4,0.1-0.5,0.1s-0.2-0.3-0.3-0.4
	c-0.1-0.3-0.3-0.3-0.4-0.6C20,25.7,20,25.6,20,25.5c-0.1,0.2-0.2,0.4-0.3,0.6c-0.1,0.2-0.2,0.3-0.3,0.5c-0.1,0.2-0.2,0.1-0.4,0.1
	c-0.2,0-0.4-0.1-0.6-0.2c-0.3-0.1-0.6-0.2-0.9-0.3c-0.7-0.2-1.1-0.5-1.7-1c-0.1-0.1-0.2-0.1-0.2-0.2s0-0.3,0.1-0.4
	c0-0.2,0.1-0.3,0.1-0.5c-0.3,0.1-0.5,0.2-0.7,0.3c-0.2,0-0.2-0.1-0.3-0.3c-0.1-0.3-0.2-0.3-0.4-0.5s-0.3-0.5-0.4-0.8
	c0-0.4-0.1-0.4-0.3-0.7c-0.2-0.2-0.1-0.5-0.2-0.7c0-0.1-0.2-0.5-0.1-0.6c0.1-0.1,0.3-0.2,0.4-0.3c0.3-0.2,0.6-0.3,0.9-0.5
	c-0.3-0.1-0.4-0.2-0.7-0.4c-0.1-0.1-0.3-0.1-0.4-0.2c-0.3-0.1-0.2-0.2-0.1-0.5c0-0.2,0.1-0.3,0.1-0.4c0.1-0.3,0.1-0.5,0.2-0.8
	c0.1-0.3,0.2-0.4,0.3-0.7c0.1-0.2,0.1-0.4,0.3-0.6c0.1-0.1,0.5-0.8,0.6-0.8c0.1-0.1,0.3,0,0.4,0c0.2,0,0.3,0.1,0.5,0.1
	c-0.1-0.2-0.1-0.3-0.2-0.4c-0.2-0.4,0-0.4,0.3-0.6c0.3-0.2,0.4-0.3,0.7-0.5c0.3-0.2,0.7-0.4,1-0.4c0.3-0.1,0.5,0,0.8-0.2
	c0.2-0.1,0.5-0.2,0.7-0.3c0.3,0,0.3,0.4,0.4,0.6c0.2,0.3,0.3,0.2,0.4,0.6c0.1,0.2,0,0.1,0.1-0.1c0.1-0.2,0.3-0.4,0.4-0.7
	c0-0.1,0.2-0.4,0.2-0.4c0.1-0.1,0.5,0.1,0.7,0.1c0.1,0,0.2,0.1,0.4,0.1c0.2,0.1,0.4,0.1,0.6,0.1c0.3,0.1,0.6,0.2,0.8,0.3
	c0.3,0.1,0.3,0.2,0.5,0.3c0.2,0.2,0.5,0.3,0.7,0.5c0.1,0.1,0.1,0.3,0,0.4c-0.1,0.2-0.1,0.3-0.2,0.5c0.2,0,0.7-0.2,0.8-0.1
	c0.1,0,0.1,0.1,0.2,0.2c0.1,0.1,0.5,0.6,0.6,0.7c0.1,0.2,0.1,0.5,0.3,0.8c0.1,0.3,0.3,0.6,0.3,0.9c0,0.4,0,0.4,0.2,0.8
	c0.1,0.3,0,0.3-0.2,0.4c-0.3,0.2-0.5,0.3-0.8,0.5c-0.1,0-0.2,0.1-0.3,0.1C25.5,20.1,25.7,20.2,25.8,20.2L25.8,20.2z M20,6.6
	c0-0.4,0-0.7,0-1s0-0.4,0.1-0.7c0-0.2,0-0.5,0-0.7s0-0.3,0-0.5c-0.1,0.3-0.2,0.7-0.3,1c-0.1,0.3-0.2,0.5-0.3,0.7
	c-0.1,0.1-0.1,0.2-0.1,0.4C19.2,6,19.1,6.3,19,6.5s-0.1,0.3-0.2,0.6c-0.1,0.2-0.2,0.5-0.3,0.8c-0.1,0.3-0.3,0.6-0.3,1
	c0,0.1-0.1,0.5-0.2,0.6s-0.2,0.3-0.3,0.4c-0.2,0.4-0.2,0.6-0.2,1c0,0.3-0.2,0.7-0.4,1c-0.1,0.2-0.1,0.4-0.2,0.6
	c-0.1,0.4-0.2,0.3-0.5,0.5c-0.3,0.1-0.5,0.3-0.7,0.5c-0.4,0.2-0.6,0.5-1,0.8c-0.2,0.2-0.3,0-0.5-0.1c-0.2-0.2-0.4-0.4-0.6-0.5
	c-0.2-0.1-0.2-0.2-0.3-0.4c-0.2-0.2-0.3-0.2-0.5-0.5s-0.2-0.3-0.4-0.5C12.1,12.1,12.1,12,12,12c-0.1-0.1-0.2-0.2-0.3-0.3
	c0.1,0.2,0,0.3,0.1,0.5c0.2,0.3,0.4,0.4,0.4,0.8c0,0.5,0.3,0.4,0.4,0.7c0.1,0.3,0,0.3,0.3,0.6c0.2,0.2,0.2,0.3,0.3,0.6
	c0.1,0.2,0.2,0.3,0.3,0.4c0,0.1,0,0.2-0.1,0.3c-0.1,0.2-0.2,0.3-0.3,0.5c-0.2,0.3-0.3,0.7-0.5,1c-0.1,0.3-0.3,0.8-0.3,1.1
	c0,0.3,0,0.3-0.1,0.6l0,0c-0.1,0.2-0.1,0.3-0.1,0.6c0,0.1,0,0.6-0.2,0.6c-0.1,0-0.2-0.2-0.6-0.1c-0.4,0.1-0.5,0.2-1,0.1
	c-0.2,0-0.6,0-0.9,0c-0.3,0-0.6,0.1-0.9,0c-0.2,0-0.4,0-0.6,0c-0.4,0-0.8,0-1.2,0c-0.2,0-0.4,0-0.7,0c-0.2,0-0.4,0-0.5-0.1
	c-0.3,0-0.6,0.1-0.9,0c-0.4,0.1-0.6,0-0.8,0h0.1c0.4,0.1,0.4,0.3,0.9,0.4c0.4,0.1,0.4,0.1,0.8,0.3c0.3,0.2,0.4,0.2,0.7,0.3
	c0.6,0.1,0.6,0.3,1,0.4c0.2,0.1,0.3,0.1,0.5,0.2c0.3,0.1,0.5,0.1,0.7,0.2C8.8,21.9,9,21.9,9.3,22c0.2,0.1,0.3,0.2,0.5,0.2
	c0.3,0.1,0.4,0.2,0.7,0.3c0.4,0.1,0.3,0.1,0.6,0.3c0.3,0.2,0.7,0.2,1,0.3c0.1,0.1,0.6,0.2,0.7,0.3c0,0,0.1,0.3,0.1,0.4
	c0.1,0.3,0.3,0.5,0.5,0.7c0.4,0.3,0.3,0.5,0.6,0.9c0.1,0.1,0.2,0.3,0.2,0.3c0,0.2-0.2,0.3-0.3,0.4c-0.2,0.2-0.3,0.4-0.5,0.5
	c-0.2,0.2-0.3,0.3-0.5,0.5l0,0c-0.4,0.4-0.9,0.9-1.3,1.3c0.4-0.2,0.7-0.3,1.1-0.5c0.3-0.1,0.6-0.3,0.9-0.4c0.4-0.2,0.6-0.4,1-0.6
	c0.2-0.1,0.4-0.2,0.7-0.3c0.1,0,0.1,0,0.2,0c0.3,0.2,0.4,0.3,0.7,0.4c0.2,0.1,0.4,0.2,0.6,0.3c0.2,0.1,0.5,0.2,0.8,0.3
	c0.5,0.2,0.8,0.1,1.3,0.3c0.2,0,0.3,0.1,0.5,0.1c0.1,0,0.3,0,0.4,0c0.1,0.1,0.1,0.2,0.2,0.3c0,0.3,0,0.6,0,0.9c0,0.2,0,0.3,0,0.5
	c0,0.3,0,0.5,0,0.8s0,0.3,0.1,0.6c0,0.2,0.1,0.8,0,1c0,0.2-0.1,0.4-0.1,0.7c0,0.2,0,0.4,0,0.6c0,0.3,0,0.5,0,0.8c0,0.2,0,0.4,0,0.6
	c0,0.3,0.2,0.5,0.1,0.9c0,0.3-0.1,0.3,0,0.6c0.1-0.4,0.3-0.5,0.4-0.9s0.2-0.7,0.4-1.1c0.1-0.3,0.2-0.4,0.2-0.7
	c0.1-0.4,0.3-0.9,0.5-1.2c0.2-0.4,0.3-0.8,0.5-1.2c0.1-0.3,0.3-0.7,0.4-1.1c0-0.3,0.1-0.4,0.2-0.7c0.1-0.2,0.1-0.3,0.2-0.5
	c0.1-0.3,0.2-0.5,0.3-0.8c0.1-0.2,0.2-0.5,0.2-0.7c0.1-0.2,0.1-0.2,0.3-0.3c0.2-0.1,0.3-0.2,0.5-0.3c0.2-0.1,0.3-0.2,0.5-0.4
	c0.3-0.1,0.4-0.3,0.6-0.4c0.1,0,0.2-0.2,0.3-0.2c0.3-0.1,0.4,0.2,0.6,0.4c0.2,0.3,0.3,0.3,0.5,0.4c0.2,0.2,0.5,0.5,0.7,0.8
	c0.1,0.2,0.2,0.2,0.4,0.4c0.2,0.2,0.3,0.4,0.5,0.5c0.1,0,0.1,0.1,0.2,0.1c-0.2-0.3-0.2-0.3-0.3-0.6c-0.1-0.2-0.1-0.2-0.2-0.4
	c-0.2-0.3-0.1-0.5-0.2-0.8c-0.1-0.2-0.2-0.4-0.4-0.6c-0.2-0.2-0.2-0.3-0.3-0.6c-0.1-0.2-0.2-0.3-0.3-0.6c-0.1-0.3-0.1-0.3,0.1-0.6
	c0.2-0.3,0.3-0.5,0.4-0.8c0.1-0.2,0.1-0.4,0.3-0.6c0.1-0.2,0.2-0.4,0.2-0.6c0.1-0.4,0.3-0.4,0.3-0.9c0-0.1,0-0.2,0-0.3
	c0-0.2,0-0.7,0-0.8c0.1-0.1,0.3-0.1,0.5-0.1c0.4,0,0.8,0,1.1,0h0.1c0.4,0,0.8,0,1.2,0c0.4,0,0.8,0,1.1,0c0.2,0,0.3,0,0.5,0
	c0.3,0,0.5,0.1,0.8,0.1c0.2,0,0.4,0,0.6,0c0.4,0,0.8,0,1.2,0s0.5-0.1,0.9,0c0.1,0,0.1,0,0.2,0C36,20.1,36,20,35.7,19.9
	c-0.3-0.1-0.7-0.2-1-0.3c-0.2-0.1-0.3-0.1-0.5-0.2s-0.4-0.1-0.6-0.2c-0.4-0.2-0.8-0.4-1.2-0.5c-0.1,0-0.3-0.1-0.4-0.1
	c-0.3-0.1-0.6-0.2-0.9-0.3c-0.3-0.1-0.6-0.2-0.9-0.3c-0.3-0.1-0.6-0.2-0.9-0.3c-0.3-0.1-0.3-0.1-0.6-0.3c-0.1-0.1-0.1-0.1-0.2-0.1
	C28.4,17,28.2,17,28,16.9c-0.1,0-0.7-0.3-0.8-0.3c-0.2-0.2-0.1-0.5-0.4-0.8c-0.2-0.2-0.2-0.2-0.4-0.5C26.3,15,26,15,25.8,14.6
	c-0.1-0.1-0.1-0.3,0-0.4c0.2-0.2,0.4-0.4,0.6-0.6c0.2-0.2,0.4-0.5,0.7-0.7c0.2-0.2,0.3-0.3,0.5-0.5c0.1-0.1,0.3-0.3,0.4-0.4
	c0.1-0.1,0.2-0.2,0.3-0.3c-0.2,0.1-0.2,0.1-0.5,0.1c-0.2,0.1-0.4,0.2-0.6,0.3s-0.3,0.1-0.5,0.2c-0.4,0.1-0.7,0.4-1,0.5
	c-0.2,0.1-0.5,0.2-0.7,0.3c-0.1,0-0.3,0.1-0.4,0.1S24.1,13.1,24,13c-0.2-0.1-0.3-0.2-0.5-0.3c-0.3-0.2-0.4-0.2-0.7-0.3
	c-0.3-0.1-0.4-0.1-0.7-0.2c-0.4-0.1-0.7-0.1-1.1-0.2c-0.3-0.1-0.4-0.1-0.7,0c-0.2,0-0.2-0.1-0.2-0.2c0-0.2,0-0.5,0-0.7
	s0-0.5-0.1-0.7c0-0.2,0-0.3,0-0.4c0-0.2,0-0.4,0-0.7c0-0.2,0-0.4,0-0.6c-0.1-0.4,0.1-0.6,0.1-0.9c0-0.1-0.1-0.2-0.1-0.3
	c0-0.1,0-0.3,0-0.4C20,6.9,20,6.8,20,6.6L20,6.6z M35.6,16.8c0-0.2,0-0.3-0.1-0.5c0-0.4-0.2-0.7-0.3-1.1v-0.1
	c-0.1-0.2-0.2-0.4-0.3-0.7c-0.1-0.2-0.1-0.3-0.2-0.5c-0.1-0.2-0.1-0.3-0.2-0.5c0-0.2-0.1-0.3-0.2-0.4c-0.1-0.1-0.1-0.2-0.2-0.3
	c0-0.1,0-0.1-0.1-0.2c-0.1-0.3-0.3-0.5-0.4-0.7c-0.1-0.2-0.2-0.3-0.2-0.5c-0.1-0.1-0.1-0.2-0.2-0.3c-0.1-0.2-0.3-0.3-0.4-0.5
	c-0.4-0.6-0.9-1.2-1.4-1.7c-0.2-0.3-0.4-0.5-0.7-0.7c-0.1-0.1-0.3-0.2-0.4-0.3c-0.2-0.2-0.4-0.3-0.7-0.5c-0.1,0-0.1-0.1-0.2-0.1
	c-0.2-0.1-0.4-0.3-0.6-0.4s-0.3-0.2-0.5-0.3c-0.2-0.2-0.5-0.3-0.7-0.4s-0.3-0.2-0.5-0.4c-0.2-0.1-0.3-0.2-0.5-0.3
	c-0.2,0-0.3,0-0.5-0.1c-0.1-0.1-0.3-0.1-0.5-0.1c-0.1,0-0.2-0.1-0.3-0.2c-0.2-0.1-0.3-0.2-0.5-0.2s-0.4-0.1-0.6-0.1
	c-0.2-0.1-0.3-0.1-0.5-0.1c-0.1,0-0.2-0.1-0.4-0.1c-0.1,0-0.2-0.1-0.3-0.1c-0.1,0-0.1-0.1-0.1-0.1c0.1-0.3,0-0.5-0.1-0.7
	s-0.1-0.3-0.2-0.5c0-0.1,0-0.1,0.1-0.2c0.1-0.1,0.1-0.1,0.2,0H23C23.3,3,23.6,3,23.8,3c0.1,0,0.2,0,0.3,0.1c0.1,0.1,0.3,0.1,0.4,0.1
	c0.4,0.1,0.6,0,1,0.3c0.2,0.1,0.3,0.2,0.5,0.2s0.3,0,0.5,0.1C26.9,4,27.1,4,27.3,4.2c0.2,0.1,0.3,0.1,0.5,0.2
	c0.3,0.1,0.3,0.2,0.5,0.3c0.1,0.1,0.3,0.2,0.4,0.3l0.1,0.1c0.3,0.2,0.6,0.4,0.9,0.6c0.3,0,0.5,0.2,0.7,0.3c0.2,0.1,0.4,0.3,0.6,0.4
	c0.2,0.2,0.4,0.3,0.6,0.5s0.4,0.4,0.7,0.6c0.2,0.2,0.3,0.3,0.5,0.5s0.4,0.5,0.6,0.7c0.3,0.4,0.6,0.7,0.9,1.1
	c0.1,0.2,0.2,0.4,0.3,0.5c0.1,0.2,0.3,0.3,0.4,0.5c0.1,0.1,0.2,0.3,0.3,0.4c0.1,0.2,0.1,0.3,0.2,0.6c0,0.2,0.1,0.3,0.2,0.5
	c0.1,0.1,0.2,0.2,0.2,0.4c0.1,0.2,0.2,0.5,0.3,0.7s0.2,0.4,0.2,0.5c0.1,0.3,0.2,0.3,0.2,0.7c0,0.3,0.2,0.5,0.3,0.7
	c0.1,0.4,0.2,0.5,0.2,0.9c0,0.3,0,0.4,0.1,0.7V17c0,0.1,0,0.2-0.1,0.2c-0.1,0.1-0.2,0.1-0.2,0c0,0-0.1,0-0.1-0.1
	c-0.2-0.1-0.3-0.1-0.5-0.2C36,17.1,35.9,17,35.8,17C35.7,16.9,35.6,16.9,35.6,16.8L35.6,16.8z M22.7,36.9c0.1-0.1,0.1-0.3,0.2-0.4
	c0.1-0.2,0.1-0.5,0.3-0.8c0-0.1,0.1-0.1,0.2-0.1l0,0c0.5-0.1,1-0.3,1.5-0.4c0.2,0,0.3,0,0.5-0.1s0.5-0.2,0.7-0.3s0.4-0.2,0.6-0.3
	c0,0,0.1,0,0.1-0.1c0.3-0.2,0.6-0.2,0.9-0.4c0.2-0.2,0.5-0.3,0.7-0.4c0.3-0.1,0.5-0.3,0.7-0.5s0.3-0.3,0.5-0.4
	c0.2-0.1,0.4-0.2,0.6-0.4c0.1-0.1,0.3-0.2,0.4-0.4c0.3-0.2,0.6-0.5,0.8-0.8c0.1-0.2,0.3-0.3,0.4-0.5c0.1-0.1,0.2-0.3,0.3-0.4
	s0.2-0.2,0.3-0.3c0.3-0.3,0.4-0.5,0.6-0.8c0.1-0.1,0.1-0.3,0.2-0.4c0-0.1,0.1-0.1,0.1-0.2c0.2-0.2,0.4-0.4,0.5-0.7
	c0.1-0.3,0.2-0.5,0.4-0.7s0.2-0.3,0.3-0.6c0-0.1,0.1-0.3,0.2-0.4c0.1-0.2,0.1-0.3,0.1-0.5c0-0.3,0.1-0.5,0.2-0.7
	c0.1-0.2,0.2-0.4,0.3-0.6s0.1-0.5,0.1-0.7c0-0.1,0-0.2,0.1-0.3c0-0.1,0.1-0.1,0.2-0.2c0.2-0.1,0.4-0.1,0.6-0.1
	c0.2,0,0.4-0.1,0.5-0.2c0.1,0,0.1,0,0.2,0c0.1,0,0.1,0.1,0.1,0.2c0,0.2-0.1,0.3-0.1,0.5c0,0.1,0,0.2,0,0.3c0,0.1,0,0.3-0.1,0.4
	c-0.1,0.2-0.2,0.4-0.2,0.6c-0.1,0.3-0.2,0.4-0.1,0.7c0,0.2,0,0.3-0.1,0.5c-0.1,0.1-0.2,0.3-0.2,0.4c-0.1,0.3-0.1,0.4-0.3,0.7
	c-0.1,0.1-0.2,0.2-0.2,0.3v0.1c0,0.1-0.1,0.2-0.1,0.3c-0.1,0.1-0.1,0.2-0.2,0.3c-0.3,0.4-0.3,0.5-0.4,0.9c-0.1,0.2-0.2,0.4-0.3,0.5
	c-0.2,0.2-0.4,0.3-0.5,0.5s-0.3,0.4-0.4,0.7c-0.2,0.4-0.4,0.5-0.7,0.7c-0.2,0.2-0.3,0.4-0.5,0.6c-0.3,0.3-0.6,0.6-0.9,0.9
	c-0.2,0.2-0.4,0.3-0.7,0.5c-0.2,0.2-0.4,0.3-0.6,0.5c-0.2,0.1-0.4,0.3-0.5,0.4c-0.2,0.1-0.3,0.2-0.5,0.3c-0.3,0.2-0.7,0.4-1,0.6
	c-0.3,0.1-0.5,0.3-0.8,0.4c-0.3,0.1-0.5,0.3-0.8,0.4c-0.2,0-0.3,0.1-0.5,0.1c-0.1,0-0.1,0-0.2,0.1c-0.3,0.1-0.5,0.2-0.8,0.2
	c-0.2,0-0.4,0.1-0.7,0.2c-0.1,0-0.1,0-0.2,0.1c-0.4,0.1-0.8,0.2-1.1,0.2c-0.1,0-0.2,0.1-0.4,0.1C22.9,37,22.9,37,22.7,36.9
	C22.7,37,22.7,36.9,22.7,36.9L22.7,36.9z M17.2,37.2c-0.3-0.1-0.5-0.2-0.8-0.2c-0.2,0-0.5-0.1-0.7-0.1c-0.2-0.1-0.4-0.1-0.6-0.1
	c-0.2,0-0.3-0.1-0.4-0.2c-0.1-0.1-0.2-0.1-0.4-0.2c-0.3-0.1-0.5-0.1-0.7-0.2c-0.2-0.1-0.4-0.2-0.5-0.4c-0.1-0.1-0.1-0.1-0.3-0.2
	c-0.2-0.1-0.5-0.1-0.7-0.2c-0.2-0.1-0.4-0.2-0.6-0.4c-0.2-0.1-0.3-0.1-0.5-0.2c-0.1,0-0.2-0.1-0.2-0.2c-0.1-0.1-0.2-0.2-0.3-0.3
	c-0.3-0.2-0.5-0.2-0.8-0.4c-0.2-0.1-0.3-0.2-0.5-0.3c-0.1-0.1-0.2-0.1-0.3-0.2c-0.2-0.2-0.4-0.4-0.6-0.6c-0.2-0.2-0.4-0.3-0.6-0.5
	S7.4,32,7.3,31.8s-0.2-0.3-0.4-0.4c-0.2-0.2-0.3-0.5-0.5-0.7c-0.1-0.1-0.3-0.3-0.4-0.4s-0.1-0.1-0.2-0.2c-0.2-0.2-0.2-0.4-0.3-0.6
	C5.3,29.2,5.2,29,5,28.7c-0.2-0.2-0.4-0.6-0.5-0.9c-0.1-0.2-0.2-0.4-0.3-0.7c-0.1,0-0.1-0.1-0.2-0.3s-0.1-0.4-0.2-0.6
	c-0.1-0.2-0.1-0.3-0.2-0.5c-0.1-0.3-0.2-0.5-0.3-0.7c-0.2-0.3-0.2-0.6-0.2-0.9C3,23.9,3,23.6,3,23.4S2.9,23,2.9,22.9v-0.1
	c0-0.1,0-0.2,0.1-0.2c0.1-0.1,0.2-0.1,0.2,0l0,0c0.2,0.1,0.4,0.2,0.6,0.4c0.1,0.1,0.3,0.2,0.5,0.2c0.1,0,0.1,0,0.2,0.1
	c0.1,0.2,0.1,0.3,0.2,0.5c0,0.2,0.1,0.4,0.1,0.5c0.1,0.2,0.1,0.3,0.2,0.5c-0.1,0.2-0.1,0.4,0,0.7c0.1,0.2,0.1,0.3,0.2,0.6
	c0,0.3,0.1,0.4,0.3,0.6c0.1,0.2,0.3,0.5,0.4,0.8c0,0.1,0.1,0.2,0.2,0.4C6.2,28,6.2,28,6.3,28.1s0.1,0.2,0.1,0.2
	c0,0.1,0.1,0.2,0.2,0.3c0.3,0.2,0.3,0.3,0.4,0.6c0.1,0.2,0.2,0.4,0.4,0.5c0.1,0.1,0.3,0.2,0.4,0.4c0.1,0.2,0.2,0.3,0.4,0.4
	c0.2,0.2,0.3,0.4,0.4,0.6c0.2,0.3,0.3,0.4,0.5,0.6c0.2,0.1,0.4,0.3,0.6,0.5c0.1,0.1,0.3,0.2,0.4,0.4c0.2,0.2,0.4,0.3,0.6,0.5
	c0.1,0.1,0.2,0.2,0.3,0.2c0.2,0.1,0.3,0.1,0.4,0.2c0.2,0.1,0.5,0.3,0.7,0.4c0.2,0.1,0.4,0.2,0.5,0.3c0,0,0.1,0,0.1,0.1
	c0.4,0.2,0.7,0.4,1.1,0.5c0.2,0.1,0.3,0.1,0.5,0.3c0.3,0.2,0.6,0.2,0.9,0.3c0.1,0,0.3,0.1,0.4,0.2c0.1,0.1,0.3,0.1,0.5,0.1
	c0.2,0,0.4,0,0.6,0.1c0.1,0,0.2,0.1,0.2,0.2c0,0.3,0.1,0.4,0.3,0.7c0.1,0.1,0.1,0.2,0.1,0.3S17.3,37.1,17.2,37.2
	c0.1,0.1,0.1,0.1,0,0.2C17.3,37.2,17.3,37.2,17.2,37.2L17.2,37.2z M4.3,17c-0.1,0-0.2,0.1-0.3,0.1c-0.3,0.1-0.5,0.2-0.8,0.3H3.1
	c-0.1,0-0.1,0-0.2,0c-0.1,0-0.1-0.1-0.1-0.2c0-0.2,0.1-0.4,0.2-0.6c0.1-0.2,0.1-0.3,0.2-0.5c0-0.2,0-0.3,0.1-0.5
	c0.1-0.3,0.1-0.5,0.2-0.8c0.1-0.2,0.1-0.3,0.2-0.6c0-0.2,0.1-0.3,0.1-0.4c0.1-0.3,0.2-0.4,0.4-0.7c0.2-0.4,0.4-0.9,0.5-1.4
	c0.1-0.3,0.3-0.5,0.5-0.8c0.1-0.2,0.2-0.4,0.3-0.5C5.6,10.2,5.7,9.9,6,9.7c0.2-0.2,0.3-0.4,0.4-0.6C6.6,8.8,6.8,8.6,7,8.4
	C7.2,8.2,7.4,8,7.6,7.8C7.7,7.7,7.9,7.6,8,7.4C8.1,7.3,8.3,7.2,8.5,7C8.6,6.9,8.8,6.8,9,6.6c0.2-0.1,0.4-0.3,0.6-0.5
	c0.3-0.2,0.5-0.4,0.8-0.6c0.2-0.2,0.4-0.4,0.8-0.5c0.3-0.1,0.5-0.2,0.8-0.4c0.2-0.2,0.3-0.3,0.6-0.4c0,0,0.2-0.1,0.4-0.2
	s0.4-0.2,0.6-0.3c0.3-0.1,0.6-0.2,0.9-0.3c0.2-0.1,0.4-0.1,0.6-0.2c0.2-0.1,0.3-0.1,0.5-0.1c0.3,0,0.6-0.1,0.9-0.2
	c0.2-0.1,0.4-0.1,0.6-0.1l0,0c0.1,0,0.1,0,0.2,0.1c0,0.1,0.1,0.1,0,0.2c0,0.1-0.1,0.2-0.1,0.3C17.1,3.6,17.1,3.8,17,4
	c0,0,0,0.1-0.1,0.2c0,0.1-0.1,0.1-0.2,0.1c-0.3,0.1-0.6,0.1-0.9,0.3c-0.2,0.1-0.3,0.1-0.5,0s-0.3,0-0.5,0.1
	c-0.1,0.1-0.3,0.2-0.4,0.3c-0.1,0-0.3,0.1-0.4,0.1c-0.3,0.1-0.6,0.2-0.9,0.4c-0.1,0.1-0.2,0.2-0.3,0.3C12.6,6,12.4,6,12.2,6.1
	s-0.3,0.2-0.5,0.3c-0.4,0.1-0.4,0.2-0.7,0.5c-0.2,0.1-0.3,0.3-0.5,0.4c-0.2,0.2-0.4,0.3-0.6,0.5C9.6,7.9,9.6,8,9.4,8.1
	C9.3,8.2,9.3,8.3,9.2,8.3C9,8.4,8.9,8.5,8.8,8.7C8.6,8.9,8.5,9.1,8.2,9.3s-0.4,0.5-0.6,0.8S7.1,10.6,6.9,11
	c-0.1,0.2-0.3,0.4-0.4,0.5S6.3,11.8,6.3,12c0,0.1-0.1,0.2-0.2,0.3S6,12.5,5.9,12.7c-0.1,0.4-0.1,0.5-0.4,0.9
	c-0.2,0.3-0.3,0.5-0.3,0.8c0,0.2-0.1,0.3-0.2,0.4c-0.1,0.2-0.2,0.3-0.2,0.5s-0.1,0.3-0.1,0.5c-0.1,0.3-0.1,0.5-0.1,0.8
	c0,0.1,0,0.3-0.1,0.4C4.4,16.9,4.3,16.9,4.3,17L4.3,17z M29.1,15.8c0.2,0.1,0.4,0.2,0.6,0.2c0.3,0.1,0.3,0.1,0.5,0.2
	c0.3,0.1,0.6,0.2,0.9,0.4c0.3,0.1,0.5,0.2,0.9,0.3c0.3,0.1,0.4,0.1,0.6,0.2c0.3,0.1,0.6,0.2,0.9,0.3c0.1,0.1,0.2,0.1,0.4,0.1
	c0.2,0.1,0.4,0.1,0.6,0.2c0.2,0.1,0.4,0.1,0.5,0.2c0.4,0.1,0.7,0.3,1.1,0.4c0.2,0.1,0.3,0.1,0.5,0.2c0.3,0.1,0.5,0.1,0.8,0.2
	c0.3,0.2,0.4,0.2,0.7,0.2c0.1,0,0.1,0,0.2,0.1c0.3,0.1,0.4,0.1,0.7,0.3c0.2,0.1,0.3,0.1,0.5,0.2c0.1,0,0.5,0.2,0.5,0.3
	c0,0.1-0.2,0.2-0.3,0.2c-0.2,0.1-0.3,0.2-0.5,0.2c-0.6,0.2-1.2,0.4-1.8,0.7c-0.3,0.1-0.6,0.3-0.9,0.4c-0.2,0.1-0.3,0.1-0.6,0.2
	c-0.3,0-0.5,0.1-0.8,0.2s-0.5,0.2-0.7,0.2c-0.3,0.1-0.5,0.2-0.8,0.3c-0.2,0.1-0.3,0.1-0.5,0.1c-0.3,0.1-0.6,0.3-0.9,0.4
	c-0.7,0.3-1.4,0.5-2.2,0.8c-0.3,0.1-0.4,0.3-0.8,0.3c-0.3,0.1-0.6,0.2-1,0.3c-0.1,0-0.2,0.1-0.3,0.1c0.1,0.3,0.1,0.4,0.3,0.6
	c0.1,0.2,0.2,0.3,0.3,0.4c0.3,0.3,0.1,0.6,0.3,0.9c0.1,0.3,0.2,0.5,0.3,0.7c0.1,0.2,0.2,0.4,0.3,0.6c0.2,0.2,0.2,0.4,0.3,0.7
	c0,0.1,0.1,0.3,0.2,0.4s0.2,0.3,0.2,0.4s0.1,0.2,0.1,0.3c0.1,0.3,0.1,0.5,0.3,0.8c0.1,0.1,0.4,0.5,0.1,0.6c-0.1,0.1-0.3,0-0.4-0.1
	c-0.3-0.1-0.4-0.1-0.6-0.2s-0.3-0.2-0.5-0.3l-0.3-0.2c0,0,0,0-0.1-0.1c-0.3-0.1-0.4,0-0.6-0.2c-0.3-0.2-0.5-0.4-0.8-0.5
	s-0.5-0.2-0.8-0.3c-0.3-0.1-0.5-0.3-0.8-0.4c-0.2-0.1-0.3-0.2-0.4-0.3c-0.3-0.2-0.5-0.2-0.8-0.3c0,0-0.1,0-0.1-0.1
	c-0.1,0.3-0.2,0.4-0.3,0.7C24,28.6,24,28.8,23.8,29c-0.2,0.4-0.2,0.5-0.3,0.9c-0.1,0.3-0.3,0.7-0.4,1s-0.2,0.5-0.3,0.8
	c-0.1,0.4-0.3,0.8-0.4,1.2c-0.2,0.4-0.3,0.7-0.4,1.1c-0.1,0.3-0.2,0.5-0.3,0.8c-0.1,0.3-0.1,0.3-0.2,0.6c-0.1,0.2-0.2,0.5-0.3,0.7
	c-0.1,0.2-0.1,0.3-0.2,0.5s-0.1,0.3-0.2,0.5c-0.1,0.3-0.2,0.5-0.3,0.8c-0.2,0.4-0.2,0.4-0.3,0.8c0,0.1-0.2,0.6-0.3,0.6
	c0.1,0.7,0,0.7-0.1,0.6c-0.1-0.2-0.1-0.2-0.2-0.3c-0.2-0.3-0.2-0.5-0.2-0.8c0-0.6-0.2-0.5-0.4-1c-0.1-0.2-0.1-0.3-0.2-0.6
	c0-0.3-0.1-0.4-0.2-0.6c-0.1-0.3-0.1-0.4-0.3-0.6c-0.2-0.2-0.2-0.3-0.2-0.6c0-0.2-0.1-0.3-0.1-0.5c-0.1-0.2-0.1-0.4-0.2-0.6
	c-0.1-0.2-0.1-0.3-0.2-0.5s-0.2-0.4-0.3-0.6c-0.1-0.2-0.1-0.3-0.2-0.5s-0.2-0.5-0.2-0.7c-0.1-0.4,0-0.5-0.3-0.9
	c-0.1-0.2-0.2-0.4-0.3-0.6c-0.2-0.3-0.2-0.3-0.2-0.6c0-0.3-0.3-0.4-0.3-0.7c0-0.2,0-0.3-0.1-0.4v-0.1c0-0.1,0-0.1,0-0.2
	c-0.5,0.2-1.1,0.5-1.6,0.7c-0.3,0.2-0.6,0.3-1,0.5s-0.7,0.4-1.1,0.5c-0.3,0.1-0.6,0.3-0.9,0.4c-0.1,0.1-0.2,0.1-0.4,0.2
	c-0.4,0.2-0.8,0.3-1.2,0.5c-0.1,0-0.2,0.1-0.3,0s0-0.2,0.1-0.4c0.2-0.3,0.2-0.6,0.3-0.9s0.2-0.5,0.3-0.8c0.1-0.2,0.2-0.3,0.2-0.5
	c0.2-0.4,0.3-0.7,0.5-1.1c0.1-0.3,0.3-0.6,0.4-0.8c0.1-0.2,0.1-0.4,0.3-0.7c0.1-0.2,0.2-0.3,0.3-0.6c0.1-0.2,0.2-0.5,0.3-0.7
	c-0.3-0.1-0.4-0.2-0.7-0.3c-0.3-0.1-0.3-0.1-0.6-0.3C10.4,24,10,24,9.7,24c-0.3-0.1-0.4-0.2-0.7-0.3c0,0-0.1,0-0.1-0.1
	c-0.3-0.1-0.6-0.2-0.9-0.3c-0.3-0.1-0.3-0.1-0.6-0.2C7.1,23,7,23,6.7,22.9c-0.2-0.1-0.4-0.1-0.7-0.2c-0.2-0.1-0.2-0.2-0.5-0.2
	c-0.2-0.1-0.3-0.1-0.5-0.2s-0.3-0.1-0.6-0.1C4,22.1,3.9,22,3.6,21.8c-0.3-0.2-0.4-0.2-0.8-0.3c-0.1,0-0.2,0-0.2,0
	c-0.3-0.1-0.6-0.3-0.9-0.4C1.5,21,1.3,21,1.1,20.9c-0.3-0.1-0.4-0.1-0.7-0.2c-0.2,0-0.5-0.1-0.4-0.4c0.1-0.1,0.3-0.2,0.4-0.2l0,0
	c0.4-0.2,0.8-0.3,1.2-0.5c0.5-0.2,1.1-0.4,1.6-0.6s0.9-0.4,1.4-0.5C4.9,18,5,18,5.3,17.9c0.4-0.2,0.6-0.2,1-0.3
	c0.5-0.2,1-0.4,1.6-0.6c0.3-0.1,0.5-0.2,0.8-0.3c0.5-0.2,1.1-0.4,1.6-0.6c0.2-0.1,0.4-0.1,0.6-0.2c0.2-0.1,0.3-0.2,0.5-0.2
	c0.2-0.1,0.3-0.1,0.5-0.2c0,0,0,0,0-0.1c-0.1-0.4-0.3-0.4-0.5-0.8c-0.1-0.2-0.2-0.4-0.2-0.6c0-0.2-0.2-0.6-0.3-0.8
	c-0.1-0.3-0.3-0.6-0.4-0.9c-0.1-0.3-0.1-0.3-0.3-0.6c-0.3-0.3-0.2-0.6-0.3-0.9c-0.1-0.2-0.2-0.3-0.3-0.5C9.5,10.2,9.4,10,9.3,9.8
	C9.2,9.7,9.2,9.5,9.1,9.4V9.3C9,9.1,9.2,8.9,9.3,9c0.4,0.2,0.9,0.4,1.3,0.6c0.1,0,0.2,0.1,0.3,0.1c0.3,0.1,0.6,0.2,0.9,0.4
	c0.2,0.1,0.4,0.2,0.5,0.3c0.3,0.2,0.4,0.3,0.8,0.4c0.3,0.1,0.5,0.2,0.8,0.3s0.5,0.1,0.8,0.3s0.3,0.2,0.6,0.3c0.1,0,0.2,0.1,0.3,0.1
	c0.1-0.3,0.1-0.4,0.2-0.7c0.1-0.2,0.1-0.5,0.2-0.7c0.1-0.3,0.2-0.4,0.3-0.7c0.1-0.3,0.1-0.4,0.3-0.7c0.1-0.2,0.2-0.5,0.3-0.7
	C17,8,17.1,7.8,17.3,7.5c0.2-0.3,0.2-0.3,0.3-0.7c0-0.2,0.1-0.5,0.2-0.7c0.1-0.3,0.3-0.6,0.4-1c0.1-0.2,0.1-0.3,0.2-0.5
	c0.2-0.4,0.3-0.8,0.4-1.2c0.1-0.3,0.2-0.6,0.3-0.9c0.1-0.3,0.1-0.4,0.3-0.8c0.2-0.3,0.2-0.5,0.3-0.8c0.1-0.3,0.2-0.5,0.3-0.8
	c0.1-0.2,0.3-0.2,0.4,0c0.1,0.3,0.2,0.4,0.2,0.7c0.1,0.3,0.2,0.5,0.2,0.8c0,0.3,0,0.4,0.2,0.6c0.1,0.2,0.1,0.4,0.2,0.6
	c0.1,0.3,0.2,0.5,0.3,0.8c0.1,0.2,0.1,0.4,0.2,0.6c0.1,0.3,0.2,0.3,0.2,0.6c0.1,0.3,0.2,0.6,0.3,1c0.1,0.4,0.2,0.5,0.4,0.8
	c0.2,0.4,0,0.6,0.2,0.9S23,7.7,23,8.1c0,0.3,0.2,0.7,0.3,0.9l0,0c0.1,0.2,0.1,0.3,0.2,0.5c0.1,0.3,0.2,0.5,0.3,0.9
	c0.1,0.2,0.1,0.3,0.2,0.5c0.2,0.3,0.1,0.5,0.2,0.8c0,0.1,0.1,0.1,0.1,0.2c0.3-0.2,0.5-0.3,0.8-0.4c0.5-0.2,0.9-0.4,1.4-0.6
	c0.4-0.2,0.8-0.3,1.2-0.5c0.2-0.1,0.4-0.2,0.6-0.3c0.3-0.1,0.5-0.2,0.8-0.4s0.6-0.2,0.9-0.4C30.3,9.2,30.7,9,30.8,9
	C31,9,31,9.2,31,9.3c-0.1,0.2-0.1,0.3-0.2,0.5c-0.1,0.1-0.2,0.5-0.3,0.6c-0.2,0.3-0.2,0.3-0.3,0.7c-0.1,0.3-0.3,0.5-0.4,0.8
	s-0.1,0.5-0.3,0.7c-0.1,0.2-0.2,0.3-0.3,0.6c-0.1,0.3-0.3,0.6-0.4,1c-0.1,0.2-0.2,0.5-0.3,0.7c-0.1,0.2-0.2,0.4-0.3,0.7
	C28.5,15.6,28.8,15.7,29.1,15.8L29.1,15.8z"/>
<g>
	<g>
		<path class="st1" d="M59.6,27.9c-0.2,0.1-0.6,0.3-1,0.4s-0.9,0.2-1.4,0.2c-0.2,0-0.5,0-0.7-0.1s-0.4-0.2-0.6-0.4
			c-0.2-0.2-0.3-0.4-0.4-0.6c-0.1-0.2-0.2-0.5-0.2-0.8V16c0-0.1,0-0.1,0.1-0.1h3.1c0.2,0,0.4-0.1,0.5-0.2c0.2-0.2,0.2-0.3,0.2-0.5
			c0-0.1,0-0.2-0.1-0.2s-0.2-0.1-0.5-0.1h-3.2c-0.1,0-0.1,0-0.1-0.1V9c0-0.2-0.1-0.3-0.2-0.3c-0.1,0-0.2,0-0.4,0
			c-0.3,0.2-0.6,0.3-0.9,0.5c-0.3,0.2-0.7,0.3-1,0.4c-0.3,0.1-0.7,0.2-1,0.3s-0.6,0.2-0.9,0.2c-0.2,0-0.3,0.2-0.3,0.4v4.1
			c0,0.1,0,0.1-0.1,0.1h-0.4c-0.2,0-0.4,0.1-0.5,0.2c-0.1,0.2-0.2,0.3-0.2,0.5c0,0.1,0,0.2,0.1,0.2s0.2,0.1,0.5,0.1h0.4
			c0.1,0,0.1,0,0.1,0.1v9.7c0,1,0.1,1.9,0.4,2.5c0.3,0.7,0.6,1.2,1.1,1.6c0.4,0.4,1,0.7,1.5,0.8c0.6,0.1,1.1,0.2,1.7,0.2
			c0.5,0,1-0.1,1.5-0.2s0.9-0.3,1.3-0.5c0.4-0.2,0.8-0.5,1.1-0.8s0.6-0.6,0.8-1c0.1-0.1,0.1-0.3,0-0.4C60,27.8,59.8,27.8,59.6,27.9z
			 M73.9,15.8c-0.1-0.3-0.2-0.5-0.4-0.7c-0.2-0.2-0.5-0.4-0.8-0.5s-0.7-0.2-1.2-0.2c-0.9,0-1.6,0.2-2.3,0.7c-0.7,0.4-1.2,1.1-1.6,2
			v-2.5c0-0.2-0.1-0.2-0.2-0.3c-0.1,0-0.2,0-0.3,0.1c-0.4,0.3-0.8,0.5-1.3,0.8s-1,0.5-1.5,0.7s-1.1,0.4-1.6,0.6
			c-0.5,0.2-1,0.3-1.5,0.4c-0.2,0-0.3,0.1-0.2,0.2c0,0.1,0.1,0.2,0.2,0.2c0,0,0.1,0,0.3,0.1c0.2,0,0.3,0.1,0.5,0.1s0.3,0.1,0.5,0.1
			c0.1,0,0.2,0.1,0.2,0.1c0.1,0,0.2,0.1,0.2,0.3v9.7c0,0.5-0.1,0.8-0.2,1.1c-0.2,0.3-0.3,0.5-0.5,0.6s-0.4,0.2-0.6,0.3
			c-0.2,0.1-0.3,0.1-0.4,0.1c-0.1,0-0.2,0.1-0.2,0.1c0,0.1-0.1,0.1,0,0.2c0,0.1,0,0.1,0.1,0.2c0.1,0,0.1,0.1,0.2,0.1H63h0.2h4.3h0.2
			h1.7c0.1,0,0.2,0,0.2-0.1c0.1,0,0.1-0.1,0.1-0.2s0-0.1,0-0.2s-0.1-0.1-0.2-0.1s-0.2,0-0.4-0.1c-0.2-0.1-0.4-0.1-0.6-0.3
			c-0.2-0.1-0.4-0.3-0.5-0.6c-0.2-0.3-0.2-0.6-0.2-1.1v-6c0-1,0.1-1.9,0.2-2.5s0.3-1.1,0.5-1.5s0.4-0.6,0.6-0.7s0.4-0.2,0.6-0.2
			s0.4,0.1,0.6,0.2c0.1,0.2,0.3,0.3,0.5,0.5s0.4,0.4,0.6,0.5c0.3,0.2,0.6,0.2,1.1,0.2c0.6,0,1.1-0.2,1.4-0.5
			c0.4-0.3,0.5-0.7,0.5-1.3C74,16.4,74,16.1,73.9,15.8z M76.4,11.3c0.2,0.2,0.5,0.4,0.9,0.6c0.3,0.1,0.7,0.2,1.1,0.2
			s0.8-0.1,1.1-0.2c0.4-0.1,0.7-0.3,0.9-0.6c0.3-0.2,0.5-0.5,0.6-0.9c0.1-0.3,0.2-0.7,0.2-1.1c0-0.4-0.1-0.7-0.2-1.1
			c-0.1-0.3-0.3-0.6-0.6-0.9c-0.2-0.2-0.5-0.4-0.9-0.6c-0.3-0.1-0.7-0.2-1.1-0.2s-0.8,0.1-1.1,0.2C77,7,76.7,7.2,76.4,7.4
			S75.9,8,75.8,8.3S75.6,9,75.6,9.4c0,0.4,0.1,0.7,0.2,1.1C75.9,10.8,76.1,11.1,76.4,11.3z M83,29.8c-0.1,0-0.3,0-0.5-0.1
			s-0.5-0.2-0.7-0.3c-0.2-0.2-0.4-0.4-0.6-0.7c-0.2-0.3-0.3-0.7-0.3-1.1v-13c0-0.2-0.1-0.2-0.2-0.3c-0.1,0-0.2,0-0.3,0.1
			c-0.4,0.3-0.8,0.5-1.3,0.8s-1,0.5-1.5,0.7s-1.1,0.4-1.6,0.6c-0.5,0.2-1,0.3-1.5,0.4c-0.2,0-0.3,0.1-0.2,0.2c0,0.1,0.1,0.2,0.2,0.2
			c0,0,0.1,0,0.3,0.1c0.2,0,0.3,0.1,0.5,0.1s0.3,0.1,0.5,0.1c0.1,0,0.2,0.1,0.2,0.1c0.1,0,0.2,0.1,0.2,0.3v9.6
			c0,0.5-0.1,0.8-0.3,1.1c-0.2,0.3-0.4,0.5-0.6,0.7s-0.5,0.3-0.7,0.3c-0.2,0.1-0.4,0.1-0.5,0.1s-0.2,0.1-0.2,0.1
			c0,0.1-0.1,0.1,0,0.2c0,0.1,0,0.1,0.1,0.2c0.1,0,0.1,0.1,0.2,0.1h8.7c0.1,0,0.2,0,0.2-0.1c0.1,0,0.1-0.1,0.1-0.2s0-0.1,0-0.2
			C83.1,29.9,83.1,29.9,83,29.8z M102.3,18.9c-0.2-0.6-0.4-1.1-0.8-1.7c-0.3-0.5-0.7-1-1.2-1.4s-1.1-0.7-1.8-1
			c-0.7-0.2-1.5-0.4-2.4-0.4c-0.8,0-1.5,0.1-2.2,0.3c-0.6,0.2-1.1,0.4-1.6,0.7c-0.4,0.3-0.7,0.5-1,0.8c-0.2,0.3-0.4,0.5-0.5,0.6
			c0,0.1-0.1,0.1-0.2,0.1s-0.1-0.1-0.1-0.2v-2.2c0-0.2-0.1-0.2-0.2-0.3c-0.1,0-0.2,0-0.3,0.1c-0.4,0.3-0.8,0.5-1.3,0.8
			s-1,0.5-1.5,0.7s-1.1,0.4-1.6,0.6s-1,0.3-1.5,0.4c-0.2,0-0.3,0.1-0.2,0.2c0,0.1,0.1,0.2,0.2,0.2c0,0,0.1,0,0.3,0.1
			c0.2,0,0.3,0.1,0.5,0.1s0.3,0.1,0.5,0.1c0.1,0,0.2,0.1,0.2,0.1c0.1,0,0.2,0.1,0.2,0.3v17.3c0,0.5-0.1,0.8-0.3,1.1
			c-0.2,0.3-0.4,0.5-0.7,0.7c-0.3,0.2-0.5,0.3-0.8,0.4c-0.2,0.1-0.4,0.1-0.5,0.1s-0.2,0.1-0.2,0.1c0,0.1-0.1,0.1,0,0.2
			c0,0.1,0,0.1,0.1,0.2c0.1,0,0.1,0.1,0.2,0.1h9c0.1,0,0.2,0,0.2-0.1c0.1,0,0.1-0.1,0.1-0.2c0-0.1,0-0.1,0-0.2
			c0-0.1-0.1-0.1-0.2-0.1s-0.3-0.1-0.5-0.1c-0.2-0.1-0.5-0.2-0.8-0.4s-0.5-0.4-0.7-0.7s-0.3-0.7-0.3-1.1V30c0-0.1,0-0.1,0.1-0.1
			s0.1,0,0.2,0c0,0,0.1,0.1,0.3,0.2c0.2,0.1,0.4,0.2,0.8,0.3c0.3,0.1,0.8,0.2,1.3,0.3c0.5,0.1,1.2,0.1,1.9,0.1
			c1.3,0,2.4-0.2,3.4-0.6s1.8-1,2.4-1.7s1.1-1.6,1.4-2.7c0.3-1,0.5-2.2,0.5-3.5c0-0.5,0-1.1-0.1-1.7C102.6,20,102.5,19.4,102.3,18.9
			z M97.6,25.7c-0.1,0.8-0.4,1.5-0.7,2.1c-0.3,0.6-0.7,1.1-1.2,1.4s-1.1,0.5-1.7,0.5c-0.7,0-1.2-0.2-1.7-0.5c-0.4-0.3-0.8-0.7-1-1.2
			c-0.3-0.5-0.4-1-0.5-1.5s-0.1-1-0.1-1.5v-4.6c0-0.4,0-0.8,0.1-1.2c0.1-0.5,0.2-0.9,0.5-1.3s0.6-0.8,1.1-1.1
			c0.5-0.3,1.1-0.4,1.9-0.4c0.6,0,1.1,0.1,1.5,0.4s0.8,0.6,1,1c0.3,0.4,0.5,0.9,0.6,1.4s0.2,1,0.3,1.5c0.1,0.5,0.1,1,0.1,1.4
			s0,0.8,0,1C97.8,24,97.7,24.9,97.6,25.7z M112.9,29.8c-0.1,0-0.3-0.1-0.5-0.1c-0.2-0.1-0.5-0.2-0.8-0.4c-0.3-0.2-0.5-0.4-0.7-0.7
			c-0.2-0.3-0.3-0.7-0.3-1.1V4.8c0-0.2-0.1-0.2-0.2-0.3c-0.1,0-0.2,0-0.3,0.1c-0.4,0.3-0.8,0.5-1.3,0.8s-1,0.5-1.5,0.7
			s-1.1,0.4-1.6,0.6s-1,0.3-1.5,0.4c-0.2,0-0.3,0.1-0.2,0.2c0,0.1,0.1,0.2,0.2,0.2c0,0,0.1,0,0.3,0.1c0.2,0,0.3,0.1,0.5,0.1
			s0.3,0.1,0.5,0.1c0.1,0,0.2,0.1,0.2,0.1c0.1,0,0.2,0.1,0.2,0.3v19.3c0,0.5-0.1,0.8-0.3,1.1c-0.2,0.3-0.4,0.5-0.7,0.7
			c-0.3,0.2-0.5,0.3-0.8,0.4c-0.2,0.1-0.4,0.1-0.5,0.1s-0.2,0.1-0.2,0.1c0,0.1-0.1,0.1,0,0.2c0,0.1,0,0.1,0.1,0.2
			c0.1,0,0.1,0.1,0.2,0.1h9c0.1,0,0.2,0,0.2-0.1c0.1,0,0.1-0.1,0.1-0.2s0-0.1,0-0.2C113.1,29.9,113,29.9,112.9,29.8z M129.4,14.9
			c-0.1,0-0.1-0.1-0.2-0.1H124c-0.1,0-0.2,0-0.2,0.1c-0.1,0-0.1,0.1-0.1,0.2c0,0.1,0,0.1,0,0.2c0,0.1,0.1,0.1,0.2,0.1
			c0.2,0,0.4,0.1,0.6,0.2c0.2,0.1,0.4,0.2,0.5,0.3c0.1,0.2,0.2,0.4,0.3,0.6c0,0.3,0,0.6-0.1,1c0,0.2-0.1,0.4-0.2,0.7
			c-0.1,0.3-0.3,0.7-0.4,1.1s-0.3,0.8-0.5,1.3c-0.2,0.4-0.3,0.9-0.5,1.2c-0.1,0.4-0.3,0.7-0.4,1s-0.2,0.5-0.2,0.5
			c-0.1,0.1-0.2,0.1-0.2,0c0,0-0.1-0.2-0.2-0.4c-0.1-0.3-0.3-0.6-0.4-0.9c-0.2-0.4-0.3-0.8-0.5-1.2c-0.2-0.5-0.4-0.9-0.5-1.3
			c-0.2-0.4-0.3-0.8-0.5-1.2c-0.1-0.4-0.2-0.6-0.3-0.8c-0.1-0.4-0.2-0.7-0.1-1c0-0.3,0.1-0.5,0.3-0.6c0.1-0.2,0.3-0.3,0.5-0.3
			c0.2-0.1,0.4-0.1,0.6-0.2c0.1,0,0.2-0.1,0.2-0.1c0-0.1,0-0.1,0-0.2c0-0.1,0-0.1-0.1-0.2c-0.1,0-0.1-0.1-0.2-0.1H113
			c-0.1,0-0.2,0-0.2,0.1c-0.1,0-0.1,0.1-0.1,0.2c0,0.1,0,0.1,0.1,0.2c0,0.1,0.1,0.1,0.2,0.1c0.3,0.1,0.6,0.2,0.8,0.3
			c0.2,0.1,0.4,0.3,0.6,0.5c0.2,0.2,0.4,0.4,0.5,0.6c0.2,0.2,0.3,0.5,0.5,0.9c0.1,0.2,0.2,0.5,0.5,1c0.2,0.5,0.5,1.1,0.8,1.9
			c0.3,0.7,0.7,1.5,1,2.4c0.4,0.9,0.7,1.7,1.1,2.5s0.7,1.6,1,2.3c0.3,0.7,0.5,1.3,0.7,1.7l-2.3,5c-0.2,0.4-0.3,0.6-0.5,0.7
			c-0.2,0.1-0.4,0.1-0.6,0s-0.5-0.1-0.7-0.2c-0.3-0.1-0.6-0.2-0.9-0.2s-0.5,0-0.8,0.1s-0.5,0.2-0.7,0.3s-0.4,0.3-0.5,0.6
			c-0.1,0.2-0.2,0.5-0.2,0.8c0,0.4,0.1,0.7,0.2,0.9s0.3,0.4,0.5,0.6c0.2,0.2,0.4,0.3,0.7,0.3c0.3,0.1,0.5,0.1,0.8,0.1
			c0.8,0,1.4-0.3,1.9-0.8s1-1.2,1.3-2.1l3-6.6c0.2-0.5,0.5-1.1,0.8-1.8c0.3-0.7,0.7-1.5,1-2.3c0.4-0.8,0.7-1.6,1.1-2.4
			s0.7-1.6,1-2.3c0.3-0.7,0.6-1.3,0.8-1.8c0.2-0.5,0.4-0.8,0.4-0.9c0.2-0.3,0.3-0.6,0.5-0.9c0.2-0.2,0.3-0.5,0.5-0.6
			c0.2-0.2,0.4-0.3,0.6-0.5c0.2-0.1,0.5-0.2,0.8-0.3c0.1,0,0.2-0.1,0.2-0.1C129.4,15,129.5,15,129.4,14.9
			C129.4,15,129.4,15,129.4,14.9z"/>
	</g>
</g>
</svg>
