<svg enable-background="new 0 0 129.5 40" viewBox="0 0 129.5 40" xmlns="http://www.w3.org/2000/svg"><path clip-rule="evenodd" d="m20 17.2c-.1.3-.2.4-.3.7-.1.5-.2.6-.4 1s-.1.5-.3.9c-.2.3-.2.3-.2.6 0 .4-.2.6-.4 1-.1.3-.1.4-.2.7-.1.4-.1.4-.2.7 0 .1.1 0 .1 0 .4-.2.8-.5 1.2-.8.2-.1.4-.3.6-.4.3-.2.4 0 .6.1.2.2.3.2.5.3s.3.2.5.4l.6.3c0-.2-.1-.4-.2-.6-.1-.4-.1-.4-.3-.7s-.1-.5-.3-.8c-.1-.2-.1-.3-.1-.4-.1-.4-.3-.4-.4-.8-.1-.3 0-.3-.2-.6s-.1-.4-.2-.8c0-.1-.3-.4-.4-.8zm5.8 3c.2.1.3.1.5.2s.4.2.5.4c.1.3-.1.6-.2.9s-.1.3-.2.6c-.1.2-.1.3-.2.5-.1.3-.4.9-.6 1.2-.1.2-.3.3-.4.5-.2.3-.4-.1-.6-.1h-.3v.2c0 .1.1.5.1.6s-.2.2-.3.3c-.2.2-.5.3-.7.5-.3.2-.7.3-1 .5-.4.2-.7.3-1.1.4-.1 0-.4.1-.5.1s-.2-.3-.3-.4c-.1-.3-.3-.3-.4-.6s-.1-.4-.1-.5c-.1.2-.2.4-.3.6s-.2.3-.3.5-.2.1-.4.1-.4-.1-.6-.2c-.3-.1-.6-.2-.9-.3-.7-.2-1.1-.5-1.7-1-.1-.1-.2-.1-.2-.2s0-.3.1-.4c0-.2.1-.3.1-.5-.3.1-.5.2-.7.3-.2 0-.2-.1-.3-.3-.1-.3-.2-.3-.4-.5s-.3-.5-.4-.8c0-.4-.1-.4-.3-.7-.2-.2-.1-.5-.2-.7 0-.1-.2-.5-.1-.6s.3-.2.4-.3c.3-.2.6-.3.9-.5-.3-.1-.4-.2-.7-.4-.1-.1-.3-.1-.4-.2-.3-.1-.2-.2-.1-.5 0-.2.1-.3.1-.4.1-.3.1-.5.2-.8s.2-.4.3-.7c.1-.2.1-.4.3-.6.1-.1.5-.8.6-.8.1-.1.3 0 .4 0 .2 0 .3.1.5.1-.1-.2-.1-.3-.2-.4-.2-.4 0-.4.3-.6s.4-.3.7-.5.7-.4 1-.4c.3-.1.5 0 .8-.2.2-.1.5-.2.7-.3.3 0 .3.4.4.6.2.3.3.2.4.6.1.2 0 .1.1-.1s.3-.4.4-.7c0-.1.2-.4.2-.4.1-.1.5.1.7.1.1 0 .2.1.4.1.2.1.4.1.6.1.3.1.6.2.8.3.3.1.3.2.5.3.2.2.5.3.7.5.1.1.1.3 0 .4-.1.2-.1.3-.2.5.2 0 .7-.2.8-.1.1 0 .1.1.2.2s.5.6.6.7c.1.2.1.5.3.8.1.3.3.6.3.9 0 .4 0 .4.2.8.1.3 0 .3-.2.4-.3.2-.5.3-.8.5-.1 0-.2.1-.3.1.2.2.4.3.5.3zm-5.8-13.6c0-.4 0-.7 0-1s0-.4.1-.7c0-.2 0-.5 0-.7s0-.3 0-.5c-.1.3-.2.7-.3 1s-.2.5-.3.7c-.1.1-.1.2-.1.4-.2.2-.3.5-.4.7s-.1.3-.2.6c-.1.2-.2.5-.3.8s-.3.6-.3 1c0 .1-.1.5-.2.6s-.2.3-.3.4c-.2.4-.2.6-.2 1 0 .3-.2.7-.4 1-.1.2-.1.4-.2.6-.1.4-.2.3-.5.5-.3.1-.5.3-.7.5-.4.2-.6.5-1 .8-.2.2-.3 0-.5-.1-.2-.2-.4-.4-.6-.5s-.2-.2-.3-.4c-.2-.2-.3-.2-.5-.5s-.2-.3-.4-.5c-.3-.2-.3-.3-.4-.3-.1-.1-.2-.2-.3-.3.1.2 0 .3.1.5.2.3.4.4.4.8 0 .5.3.4.4.7s0 .3.3.6c.2.2.2.3.3.6.1.2.2.3.3.4 0 .1 0 .2-.1.3-.1.2-.2.3-.3.5-.2.3-.3.7-.5 1-.1.3-.3.8-.3 1.1s0 .3-.1.6c-.1.2-.1.3-.1.6 0 .1 0 .6-.2.6-.1 0-.2-.2-.6-.1s-.5.2-1 .1c-.2 0-.6 0-.9 0s-.6.1-.9 0c-.2 0-.4 0-.6 0-.4 0-.8 0-1.2 0-.2 0-.4 0-.7 0-.2 0-.4 0-.5-.1-.3 0-.6.1-.9 0-.4.1-.6 0-.8 0h.1c.4.1.4.3.9.4.4.1.4.1.8.3.3.2.4.2.7.3.6.1.6.3 1 .4.2.1.3.1.5.2.3.1.5.1.7.2.3.2.5.2.8.3.2.1.3.2.5.2.3.1.4.2.7.3.4.1.3.1.6.3s.7.2 1 .3c.1.1.6.2.7.3 0 0 .1.3.1.4.1.3.3.5.5.7.4.3.3.5.6.9.1.1.2.3.2.3 0 .2-.2.3-.3.4-.2.2-.3.4-.5.5-.2.2-.3.3-.5.5-.4.4-.9.9-1.3 1.3.4-.2.7-.3 1.1-.5.3-.1.6-.3.9-.4.4-.2.6-.4 1-.6.2-.1.4-.2.7-.3h.2c.3.2.4.3.7.4.2.1.4.2.6.3s.5.2.8.3c.5.2.8.1 1.3.3.2 0 .3.1.5.1h.4c.1.1.1.2.2.3v.9.5.8c0 .3 0 .3.1.6 0 .2.1.8 0 1 0 .2-.1.4-.1.7v.6.8.6c0 .3.2.5.1.9 0 .3-.1.3 0 .6.1-.4.3-.5.4-.9s.2-.7.4-1.1c.1-.3.2-.4.2-.7.1-.4.3-.9.5-1.2.2-.4.3-.8.5-1.2.1-.3.3-.7.4-1.1 0-.3.1-.4.2-.7.1-.2.1-.3.2-.5.1-.3.2-.5.3-.8.1-.2.2-.5.2-.7.1-.2.1-.2.3-.3s.3-.2.5-.3.3-.2.5-.4c.3-.1.4-.3.6-.4.1 0 .2-.2.3-.2.3-.1.4.2.6.4.2.3.3.3.5.4.2.2.5.5.7.8.1.2.2.2.4.4s.3.4.5.5c.1 0 .1.1.2.1-.2-.3-.2-.3-.3-.6-.1-.2-.1-.2-.2-.4-.2-.3-.1-.5-.2-.8-.1-.2-.2-.4-.4-.6s-.2-.3-.3-.6c-.1-.2-.2-.3-.3-.6s-.1-.3.1-.6.3-.5.4-.8c.1-.2.1-.4.3-.6.1-.2.2-.4.2-.6.1-.4.3-.4.3-.9 0-.1 0-.2 0-.3 0-.2 0-.7 0-.8.1-.1.3-.1.5-.1h1.1.1 1.2 1.1.5c.3 0 .5.1.8.1h.6 1.2c.4 0 .5-.1.9 0h.2c-.3-.1-.3-.2-.6-.3s-.7-.2-1-.3c-.2-.1-.3-.1-.5-.2s-.4-.1-.6-.2c-.4-.2-.8-.4-1.2-.5-.1 0-.3-.1-.4-.1-.3-.1-.6-.2-.9-.3s-.6-.2-.9-.3-.6-.2-.9-.3-.3-.1-.6-.3c-.1-.1-.1-.1-.2-.1-.1-.3-.3-.3-.5-.4-.1 0-.7-.3-.8-.3-.2-.2-.1-.5-.4-.8-.2-.2-.2-.2-.4-.5-.1-.3-.4-.3-.6-.7-.1-.1-.1-.3 0-.4.2-.2.4-.4.6-.6s.4-.5.7-.7c.2-.2.3-.3.5-.5.1-.1.3-.3.4-.4s.2-.2.3-.3c-.2.1-.2.1-.5.1-.2.1-.4.2-.6.3s-.3.1-.5.2c-.4.1-.7.4-1 .5-.2.1-.5.2-.7.3-.1 0-.3.1-.4.1s-.5-.1-.6-.2c-.2-.1-.3-.2-.5-.3-.3-.2-.4-.2-.7-.3s-.4-.1-.7-.2c-.4-.1-.7-.1-1.1-.2-.3-.1-.4-.1-.7 0-.2 0-.2-.1-.2-.2 0-.2 0-.5 0-.7s0-.5-.1-.7c0-.2 0-.3 0-.4 0-.2 0-.4 0-.7 0-.2 0-.4 0-.6-.1-.4.1-.6.1-.9 0-.1-.1-.2-.1-.3s0-.3 0-.4c0-.2 0-.3 0-.5zm15.6 10.2c0-.2 0-.3-.1-.5 0-.4-.2-.7-.3-1.1v-.1c-.1-.2-.2-.4-.3-.7-.1-.2-.1-.3-.2-.5s-.1-.3-.2-.5c0-.2-.1-.3-.2-.4s-.1-.2-.2-.3c0-.1 0-.1-.1-.2-.1-.3-.3-.5-.4-.7s-.2-.3-.2-.5c-.1-.1-.1-.2-.2-.3-.1-.2-.3-.3-.4-.5-.4-.6-.9-1.2-1.4-1.7-.2-.3-.4-.5-.7-.7-.1-.1-.3-.2-.4-.3-.2-.2-.4-.3-.7-.5-.1 0-.1-.1-.2-.1-.2-.1-.4-.3-.6-.4s-.3-.2-.5-.3c-.2-.2-.5-.3-.7-.4s-.3-.2-.5-.4c-.2-.1-.3-.2-.5-.3-.2 0-.3 0-.5-.1-.1-.1-.3-.1-.5-.1-.1 0-.2-.1-.3-.2-.2-.1-.3-.2-.5-.2s-.4-.1-.6-.1c-.2-.1-.3-.1-.5-.1-.1 0-.2-.1-.4-.1-.1 0-.2-.1-.3-.1s-.1-.1-.1-.1c.1-.3 0-.5-.1-.7s-.1-.3-.2-.5c0-.1 0-.1.1-.2s.1-.1.2 0h.1c.3.1.6.1.8.1.1 0 .2 0 .3.1s.3.1.4.1c.4.1.6 0 1 .3.2.1.3.2.5.2s.3 0 .5.1c.4.2.6.2.8.4.2.1.3.1.5.2.3.1.3.2.5.3.1.1.3.2.4.3 0 0 .1.1.1.1.3.2.6.4.9.6.3 0 .5.2.7.3s.4.3.6.4c.2.2.4.3.6.5s.4.4.7.6c.2.2.3.3.5.5s.4.5.6.7c.3.4.6.7.9 1.1.1.2.2.4.3.5.1.2.3.3.4.5.1.1.2.3.3.4.1.2.1.3.2.6 0 .2.1.3.2.5.1.1.2.2.2.4.1.2.2.5.3.7s.2.4.2.5c.1.3.2.3.2.7 0 .3.2.5.3.7.1.4.2.5.2.9 0 .3 0 .4.1.7v.1c0 .1 0 .2-.1.2-.1.1-.2.1-.2 0 0 0-.1 0-.1-.1-.2-.1-.3-.1-.5-.2-.3.2-.4.1-.5.1-.1-.1-.2-.1-.2-.2zm-12.9 20.1c.1-.1.1-.3.2-.4.1-.2.1-.5.3-.8 0-.1.1-.1.2-.1.5-.1 1-.3 1.5-.4.2 0 .3 0 .5-.1s.5-.2.7-.3.4-.2.6-.3c0 0 .1 0 .1-.1.3-.2.6-.2.9-.4.2-.2.5-.3.7-.4.3-.1.5-.3.7-.5s.3-.3.5-.4.4-.2.6-.4c.1-.1.3-.2.4-.4.3-.2.6-.5.8-.8.1-.2.3-.3.4-.5.1-.1.2-.3.3-.4s.2-.2.3-.3c.3-.3.4-.5.6-.8.1-.1.1-.3.2-.4 0-.1.1-.1.1-.2.2-.2.4-.4.5-.7s.2-.5.4-.7.2-.3.3-.6c0-.1.1-.3.2-.4.1-.2.1-.3.1-.5 0-.3.1-.5.2-.7s.2-.4.3-.6.1-.5.1-.7c0-.1 0-.2.1-.3 0-.1.1-.1.2-.2.2-.1.4-.1.6-.1s.4-.1.5-.2h.2c.1 0 .1.1.1.2 0 .2-.1.3-.1.5v.3c0 .1 0 .3-.1.4-.1.2-.2.4-.2.6-.1.3-.2.4-.1.7 0 .2 0 .3-.1.5-.1.1-.2.3-.2.4-.1.3-.1.4-.3.7-.1.1-.2.2-.2.3v.1c0 .1-.1.2-.1.3-.1.1-.1.2-.2.3-.3.4-.3.5-.4.9-.1.2-.2.4-.3.5-.2.2-.4.3-.5.5s-.3.4-.4.7c-.2.4-.4.5-.7.7-.2.2-.3.4-.5.6-.3.3-.6.6-.9.9-.2.2-.4.3-.7.5-.2.2-.4.3-.6.5-.2.1-.4.3-.5.4-.2.1-.3.2-.5.3-.3.2-.7.4-1 .6-.3.1-.5.3-.8.4s-.5.3-.8.4c-.2 0-.3.1-.5.1-.1 0-.1 0-.2.1-.3.1-.5.2-.8.2-.2 0-.4.1-.7.2-.1 0-.1 0-.2.1-.4.1-.8.2-1.1.2-.1 0-.2.1-.4.1-.1 0-.1 0-.2-.1-.1.1-.1 0-.1 0zm-5.5.3c-.3-.1-.5-.2-.8-.2-.2 0-.5-.1-.7-.1-.2-.1-.4-.1-.6-.1s-.3-.1-.4-.2-.2-.1-.4-.2c-.3-.1-.5-.1-.7-.2s-.4-.2-.5-.4c-.1-.1-.1-.1-.3-.2s-.5-.1-.7-.2-.4-.2-.6-.4c-.2-.1-.3-.1-.5-.2-.1 0-.2-.1-.2-.2-.1-.1-.2-.2-.3-.3-.3-.2-.5-.2-.8-.4-.2-.1-.3-.2-.5-.3-.1-.1-.2-.1-.3-.2-.2-.2-.4-.4-.6-.6s-.4-.3-.6-.5-.3-.3-.4-.5-.2-.3-.4-.4c-.2-.2-.3-.5-.5-.7-.1-.1-.3-.3-.4-.4s-.1-.1-.2-.2c-.2-.2-.2-.4-.3-.6-.2-.3-.3-.5-.5-.8-.2-.2-.4-.6-.5-.9-.1-.2-.2-.4-.3-.7-.1 0-.1-.1-.2-.3s-.1-.4-.2-.6-.1-.3-.2-.5c-.1-.3-.2-.5-.3-.7-.2-.3-.2-.6-.2-.9-.1-.2-.1-.5-.1-.7s-.1-.4-.1-.5v-.1c0-.1 0-.2.1-.2.1-.1.2-.1.2 0 .2.1.4.2.6.4.1.1.3.2.5.2.1 0 .1 0 .2.1.1.2.1.3.2.5 0 .2.1.4.1.5.1.2.1.3.2.5-.1.2-.1.4 0 .7.1.2.1.3.2.6 0 .3.1.4.3.6.1.2.3.5.4.8 0 .1.1.2.2.4.1.1.1.1.2.2s.1.2.1.2c0 .1.1.2.2.3.3.2.3.3.4.6.1.2.2.4.4.5.1.1.3.2.4.4s.2.3.4.4c.2.2.3.4.4.6.2.3.3.4.5.6.2.1.4.3.6.5.1.1.3.2.4.4.2.2.4.3.6.5.1.1.2.2.3.2.2.1.3.1.4.2.2.1.5.3.7.4s.4.2.5.3c0 0 .1 0 .1.1.4.2.7.4 1.1.5.2.1.3.1.5.3.3.2.6.2.9.3.1 0 .3.1.4.2s.3.1.5.1.4 0 .6.1c.1 0 .2.1.2.2 0 .3.1.4.3.7.1.1.1.2.1.3v.2c0 .1 0 .1-.1.2.1-.2.1-.2 0-.2zm-12.9-20.2c-.1 0-.2.1-.3.1-.3.1-.5.2-.8.3h-.1c-.1 0-.1 0-.2 0s-.1-.1-.1-.2c0-.2.1-.4.2-.6s.1-.3.2-.5c0-.2 0-.3.1-.5.1-.3.1-.5.2-.8.1-.2.1-.3.2-.6 0-.2.1-.3.1-.4.1-.3.2-.4.4-.7.2-.4.4-.9.5-1.4.1-.3.3-.5.5-.8.1-.2.2-.4.3-.5.1-.2.2-.5.5-.7.2-.2.3-.4.4-.6.2-.3.4-.5.6-.7s.4-.4.6-.6c.1-.1.3-.2.4-.4.1-.1.3-.2.5-.4.1-.1.3-.2.5-.4.2-.1.4-.3.6-.5.3-.2.5-.4.8-.6.2-.2.4-.4.8-.5.3-.1.5-.2.8-.4.2-.2.3-.3.6-.4 0 0 .2-.1.4-.2s.4-.2.6-.3c.3-.1.6-.2.9-.3.2-.1.4-.1.6-.2s.3-.1.5-.1c.3 0 .6-.1.9-.2.2-.1.4-.1.6-.1.1 0 .1 0 .2.1 0 .1.1.1 0 .2 0 .1-.1.2-.1.3-.1.2-.1.4-.2.6 0 0 0 .1-.1.2 0 .1-.1.1-.2.1-.3.1-.6.1-.9.3-.2.1-.3.1-.5 0s-.3 0-.5.1c-.1.1-.3.2-.4.3-.1 0-.3.1-.4.1-.3.1-.6.2-.9.4-.1.1-.2.2-.3.3-.2.2-.4.2-.6.3s-.3.2-.5.3c-.4.1-.4.2-.7.5-.2.1-.3.3-.5.4-.2.2-.4.3-.6.5-.3.1-.3.2-.5.3-.1.1-.1.2-.2.2-.2.1-.3.2-.4.4-.2.2-.3.4-.6.6s-.4.5-.6.8-.5.5-.7.9c-.1.2-.3.4-.4.5s-.2.3-.2.5c0 .1-.1.2-.2.3s-.1.2-.2.4c-.1.4-.1.5-.4.9-.2.3-.3.5-.3.8 0 .2-.1.3-.2.4-.1.2-.2.3-.2.5s-.1.3-.1.5c-.1.3-.1.5-.1.8 0 .1 0 .3-.1.4-.1-.1-.2-.1-.2 0zm24.8-1.2c.2.1.4.2.6.2.3.1.3.1.5.2.3.1.6.2.9.4.3.1.5.2.9.3.3.1.4.1.6.2.3.1.6.2.9.3.1.1.2.1.4.1.2.1.4.1.6.2s.4.1.5.2c.4.1.7.3 1.1.4.2.1.3.1.5.2.3.1.5.1.8.2.3.2.4.2.7.2.1 0 .1 0 .2.1.3.1.4.1.7.3.2.1.3.1.5.2.1 0 .5.2.5.3s-.2.2-.3.2c-.2.1-.3.2-.5.2-.6.2-1.2.4-1.8.7-.3.1-.6.3-.9.4-.2.1-.3.1-.6.2-.3 0-.5.1-.8.2s-.5.2-.7.2c-.3.1-.5.2-.8.3-.2.1-.3.1-.5.1-.3.1-.6.3-.9.4-.7.3-1.4.5-2.2.8-.3.1-.4.3-.8.3-.3.1-.6.2-1 .3-.1 0-.2.1-.3.1.1.3.1.4.3.6.1.2.2.3.3.4.3.3.1.6.3.9.1.3.2.5.3.7s.2.4.3.6c.2.2.2.4.3.7 0 .1.1.3.2.4s.2.3.2.4.1.2.1.3c.1.3.1.5.3.8.1.1.4.5.1.6-.1.1-.3 0-.4-.1-.3-.1-.4-.1-.6-.2s-.3-.2-.5-.3c0 0-.3-.2-.3-.2s0 0-.1-.1c-.3-.1-.4 0-.6-.2-.3-.2-.5-.4-.8-.5s-.5-.2-.8-.3-.5-.3-.8-.4c-.2-.1-.3-.2-.4-.3-.3-.2-.5-.2-.8-.3 0 0-.1 0-.1-.1-.1.3-.2.4-.3.7s-.1.5-.3.7c-.2.4-.2.5-.3.9-.1.3-.3.7-.4 1s-.2.5-.3.8c-.1.4-.3.8-.4 1.2-.2.4-.3.7-.4 1.1-.1.3-.2.5-.3.8s-.1.3-.2.6c-.1.2-.2.5-.3.7s-.1.3-.2.5-.1.3-.2.5c-.1.3-.2.5-.3.8-.2.4-.2.4-.3.8 0 .1-.2.6-.3.6.1.7 0 .7-.1.6-.1-.2-.1-.2-.2-.3-.2-.3-.2-.5-.2-.8 0-.6-.2-.5-.4-1-.1-.2-.1-.3-.2-.6 0-.3-.1-.4-.2-.6-.1-.3-.1-.4-.3-.6s-.2-.3-.2-.6c0-.2-.1-.3-.1-.5-.1-.2-.1-.4-.2-.6s-.1-.3-.2-.5-.2-.4-.3-.6-.1-.3-.2-.5-.2-.5-.2-.7c-.1-.4 0-.5-.3-.9-.1-.2-.2-.4-.3-.6-.2-.3-.2-.3-.2-.6s-.3-.4-.3-.7c0-.2 0-.3-.1-.4v-.1c0-.1 0-.1 0-.2-.5.2-1.1.5-1.6.7-.3.2-.6.3-1 .5s-.7.4-1.1.5c-.3.1-.6.3-.9.4-.1.1-.2.1-.4.2-.4.2-.8.3-1.2.5-.1 0-.2.1-.3 0s0-.2.1-.4c.2-.3.2-.6.3-.9s.2-.5.3-.8c.1-.2.2-.3.2-.5.2-.4.3-.7.5-1.1.1-.3.3-.6.4-.8s.1-.4.3-.7c.1-.2.2-.3.3-.6.1-.2.2-.5.3-.7-.3-.1-.4-.2-.7-.3s-.3-.1-.6-.3c-.2-.2-.6-.2-.9-.2-.3-.1-.4-.2-.7-.3 0 0-.1 0-.1-.1-.3-.1-.6-.2-.9-.3s-.3-.1-.6-.2-.4-.1-.7-.2c-.2-.1-.4-.1-.7-.2-.2-.1-.2-.2-.5-.2-.2-.1-.3-.1-.5-.2s-.3-.1-.6-.1c-.4-.1-.5-.2-.8-.4s-.4-.2-.8-.3c-.1 0-.2 0-.2 0-.3-.1-.6-.3-.9-.4-.2-.1-.4-.1-.6-.2-.3-.1-.4-.1-.7-.2-.2 0-.5-.1-.4-.4.1-.1.3-.2.4-.2.4-.2.8-.3 1.2-.5.5-.2 1.1-.4 1.6-.6s.9-.4 1.4-.5c.3-.5.4-.5.7-.6.4-.2.6-.2 1-.3.5-.2 1-.4 1.6-.6.3-.1.5-.2.8-.3.5-.2 1.1-.4 1.6-.6.2-.1.4-.1.6-.2s.3-.2.5-.2c.2-.1.3-.1.5-.2 0 0 0 0 0-.1-.1-.4-.3-.4-.5-.8-.1-.2-.2-.4-.2-.6s-.2-.6-.3-.8c-.1-.3-.3-.6-.4-.9s-.1-.3-.3-.6c-.3-.3-.2-.6-.3-.9-.1-.2-.2-.3-.3-.5-.1-.1-.2-.3-.3-.5-.1-.1-.1-.3-.2-.4v-.1c-.1-.2.1-.4.2-.3.4.2.9.4 1.3.6.1 0 .2.1.3.1.3.1.6.2.9.4.2.1.4.2.5.3.3.2.4.3.8.4.3.1.5.2.8.3s.5.1.8.3.3.2.6.3c.1 0 .2.1.3.1.1-.3.1-.4.2-.7.1-.2.1-.5.2-.7.1-.3.2-.4.3-.7s.1-.4.3-.7c.1-.2.2-.5.3-.7.1-.3.2-.5.4-.8s.2-.3.3-.7c0-.2.1-.5.2-.7.1-.3.3-.6.4-1 .1-.2.1-.3.2-.5.2-.4.3-.8.4-1.2.1-.3.2-.6.3-.9s.1-.4.3-.8c.2-.3.2-.5.3-.8s.2-.5.3-.8c.1-.2.3-.2.4 0 .1.3.2.4.2.7.1.3.2.5.2.8 0 .3 0 .4.2.6.1.2.1.4.2.6.1.3.2.5.3.8.1.2.1.4.2.6.1.3.2.3.2.6.1.3.2.6.3 1s.2.5.4.8c.2.4 0 .6.2.9s.2.2.2.6c0 .3.2.7.3.9.1.2.1.3.2.5.1.3.2.5.3.9.1.2.1.3.2.5.2.3.1.5.2.8 0 .1.1.1.1.2.3-.2.5-.3.8-.4.5-.2.9-.4 1.4-.6.4-.2.8-.3 1.2-.5.2-.1.4-.2.6-.3.3-.1.5-.2.8-.4s.6-.2.9-.4c.3-.1.7-.3.8-.3.2 0 .2.2.2.3-.1.2-.1.3-.2.5-.1.1-.2.5-.3.6-.2.3-.2.3-.3.7-.1.3-.3.5-.4.8s-.1.5-.3.7c-.1.2-.2.3-.3.6s-.3.6-.4 1c-.1.2-.2.5-.3.7s-.2.4-.3.7c.3 0 .6.1.9.2z" fill="#db834e" fill-rule="evenodd"/><path d="m59.6 27.9c-.2.1-.6.3-1 .4s-.9.2-1.4.2c-.2 0-.5 0-.7-.1s-.4-.2-.6-.4-.3-.4-.4-.6-.2-.5-.2-.8v-10.6c0-.1 0-.1.1-.1h3.1c.2 0 .4-.1.5-.2.2-.2.2-.3.2-.5 0-.1 0-.2-.1-.2s-.2-.1-.5-.1h-3.2c-.1 0-.1 0-.1-.1v-5.8c0-.2-.1-.3-.2-.3s-.2 0-.4 0c-.3.2-.6.3-.9.5s-.7.3-1 .4-.7.2-1 .3-.6.2-.9.2c-.2 0-.3.2-.3.4v4.1c0 .1 0 .1-.1.1h-.4c-.2 0-.4.1-.5.2-.1.2-.2.3-.2.5 0 .1 0 .2.1.2s.2.1.5.1h.4c.1 0 .1 0 .1.1v9.7c0 1 .1 1.9.4 2.5.3.7.6 1.2 1.1 1.6.4.4 1 .7 1.5.8.6.1 1.1.2 1.7.2.5 0 1-.1 1.5-.2s.9-.3 1.3-.5.8-.5 1.1-.8.6-.6.8-1c.1-.1.1-.3 0-.4.1.1-.1.1-.3.2zm14.3-12.1c-.1-.3-.2-.5-.4-.7s-.5-.4-.8-.5-.7-.2-1.2-.2c-.9 0-1.6.2-2.3.7-.7.4-1.2 1.1-1.6 2v-2.5c0-.2-.1-.2-.2-.3-.1 0-.2 0-.3.1-.4.3-.8.5-1.3.8s-1 .5-1.5.7-1.1.4-1.6.6-1 .3-1.5.4c-.2 0-.3.1-.2.2 0 .1.1.2.2.2 0 0 .1 0 .3.1.2 0 .3.1.5.1s.3.1.5.1c.1 0 .2.1.2.1.1 0 .2.1.2.3v9.7c0 .5-.1.8-.2 1.1-.2.3-.3.5-.5.6s-.4.2-.6.3-.3.1-.4.1-.2.1-.2.1c0 .1-.1.1 0 .2 0 .1 0 .1.1.2.1 0 .1.1.2.1h1.7.2 4.3.2 1.7c.1 0 .2 0 .2-.1.1 0 .1-.1.1-.2s0-.1 0-.2-.1-.1-.2-.1-.2 0-.4-.1-.4-.1-.6-.3c-.2-.1-.4-.3-.5-.6-.2-.3-.2-.6-.2-1.1v-6c0-1 .1-1.9.2-2.5s.3-1.1.5-1.5.4-.6.6-.7.4-.2.6-.2.4.1.6.2c.1.2.3.3.5.5s.4.4.6.5c.3.2.6.2 1.1.2.6 0 1.1-.2 1.4-.5.4-.3.5-.7.5-1.3-.4 0-.4-.3-.5-.6zm2.5-4.5c.2.2.5.4.9.6.3.1.7.2 1.1.2s.8-.1 1.1-.2c.4-.1.7-.3.9-.6.3-.2.5-.5.6-.9.1-.3.2-.7.2-1.1s-.1-.7-.2-1.1c-.1-.3-.3-.6-.6-.9-.2-.2-.5-.4-.9-.6-.3-.1-.7-.2-1.1-.2s-.8.1-1.1.2c-.3.3-.6.5-.9.7s-.5.6-.6.9-.2.7-.2 1.1.1.7.2 1.1c.1.3.3.6.6.8zm6.6 18.5c-.1 0-.3 0-.5-.1s-.5-.2-.7-.3c-.2-.2-.4-.4-.6-.7s-.3-.7-.3-1.1v-13c0-.2-.1-.2-.2-.3-.1 0-.2 0-.3.1-.4.3-.8.5-1.3.8s-1 .5-1.5.7-1.1.4-1.6.6-1 .3-1.5.4c-.2 0-.3.1-.2.2 0 .1.1.2.2.2 0 0 .1 0 .3.1.2 0 .3.1.5.1s.3.1.5.1c.1 0 .2.1.2.1.1 0 .2.1.2.3v9.6c0 .5-.1.8-.3 1.1s-.4.5-.6.7-.5.3-.7.3c-.2.1-.4.1-.5.1s-.2.1-.2.1c0 .1-.1.1 0 .2 0 .1 0 .1.1.2.1 0 .1.1.2.1h8.7c.1 0 .2 0 .2-.1.1 0 .1-.1.1-.2s0-.1 0-.2c-.1 0-.1 0-.2-.1zm19.3-10.9c-.2-.6-.4-1.1-.8-1.7-.3-.5-.7-1-1.2-1.4s-1.1-.7-1.8-1c-.7-.2-1.5-.4-2.4-.4-.8 0-1.5.1-2.2.3-.6.2-1.1.4-1.6.7-.4.3-.7.5-1 .8-.2.3-.4.5-.5.6 0 .1-.1.1-.2.1s-.1-.1-.1-.2v-2.2c0-.2-.1-.2-.2-.3-.1 0-.2 0-.3.1-.4.3-.8.5-1.3.8s-1 .5-1.5.7-1.1.4-1.6.6-1 .3-1.5.4c-.2 0-.3.1-.2.2 0 .1.1.2.2.2 0 0 .1 0 .3.1.2 0 .3.1.5.1s.3.1.5.1c.1 0 .2.1.2.1.1 0 .2.1.2.3v17.3c0 .5-.1.8-.3 1.1s-.4.5-.7.7-.5.3-.8.4c-.2.1-.4.1-.5.1s-.2.1-.2.1c0 .1-.1.1 0 .2 0 .1 0 .1.1.2.1 0 .1.1.2.1h9c.1 0 .2 0 .2-.1.1 0 .1-.1.1-.2s0-.1 0-.2-.1-.1-.2-.1-.3-.1-.5-.1c-.2-.1-.5-.2-.8-.4s-.5-.4-.7-.7-.3-.7-.3-1.1v-5.2c0-.1 0-.1.1-.1h.2s.1.1.3.2.4.2.8.3c.3.1.8.2 1.3.3s1.2.1 1.9.1c1.3 0 2.4-.2 3.4-.6s1.8-1 2.4-1.7 1.1-1.6 1.4-2.7c.3-1 .5-2.2.5-3.5 0-.5 0-1.1-.1-1.7 0-.6-.1-1.2-.3-1.7zm-4.7 6.8c-.1.8-.4 1.5-.7 2.1s-.7 1.1-1.2 1.4-1.1.5-1.7.5c-.7 0-1.2-.2-1.7-.5-.4-.3-.8-.7-1-1.2-.3-.5-.4-1-.5-1.5s-.1-1-.1-1.5v-4.6c0-.4 0-.8.1-1.2.1-.5.2-.9.5-1.3s.6-.8 1.1-1.1 1.1-.4 1.9-.4c.6 0 1.1.1 1.5.4s.8.6 1 1c.3.4.5.9.6 1.4s.2 1 .3 1.5.1 1 .1 1.4v1c0 .9-.1 1.8-.2 2.6zm15.3 4.1c-.1 0-.3-.1-.5-.1-.2-.1-.5-.2-.8-.4s-.5-.4-.7-.7-.3-.7-.3-1.1v-22.7c0-.2-.1-.2-.2-.3-.1 0-.2 0-.3.1-.4.3-.8.5-1.3.8s-1 .5-1.5.7-1.1.4-1.6.6-1 .3-1.5.4c-.2 0-.3.1-.2.2 0 .1.1.2.2.2 0 0 .1 0 .3.1.2 0 .3.1.5.1s.3.1.5.1c.1 0 .2.1.2.1.1 0 .2.1.2.3v19.3c0 .5-.1.8-.3 1.1s-.4.5-.7.7-.5.3-.8.4c-.2.1-.4.1-.5.1s-.2.1-.2.1c0 .1-.1.1 0 .2 0 .1 0 .1.1.2.1 0 .1.1.2.1h9c.1 0 .2 0 .2-.1.1 0 .1-.1.1-.2s0-.1 0-.2c.1 0 0 0-.1-.1zm16.5-14.9c-.1 0-.1-.1-.2-.1h-5.2c-.1 0-.2 0-.2.1-.1 0-.1.1-.1.2v.2c0 .1.1.1.2.1.2 0 .4.1.6.2s.4.2.5.3c.1.2.2.4.3.6 0 .3 0 .6-.1 1 0 .2-.1.4-.2.7s-.3.7-.4 1.1-.3.8-.5 1.3c-.2.4-.3.9-.5 1.2-.1.4-.3.7-.4 1s-.2.5-.2.5c-.1.1-.2.1-.2 0 0 0-.1-.2-.2-.4-.1-.3-.3-.6-.4-.9-.2-.4-.3-.8-.5-1.2-.2-.5-.4-.9-.5-1.3-.2-.4-.3-.8-.5-1.2-.1-.4-.2-.6-.3-.8-.1-.4-.2-.7-.1-1 0-.3.1-.5.3-.6.1-.2.3-.3.5-.3.2-.1.4-.1.6-.2.1 0 .2-.1.2-.1 0-.1 0-.1 0-.2s0-.1-.1-.2c-.1 0-.1-.1-.2-.1h-8.6c-.1 0-.2 0-.2.1-.1 0-.1.1-.1.2s0 .1.1.2c0 .1.1.1.2.1.3.1.6.2.8.3s.4.3.6.5.4.4.5.6c.2.2.3.5.5.9.1.2.2.5.5 1 .2.5.5 1.1.8 1.9.3.7.7 1.5 1 2.4.4.9.7 1.7 1.1 2.5s.7 1.6 1 2.3.5 1.3.7 1.7l-2.3 5c-.2.4-.3.6-.5.7s-.4.1-.6 0-.5-.1-.7-.2c-.3-.1-.6-.2-.9-.2s-.5 0-.8.1-.5.2-.7.3-.4.3-.5.6c-.1.2-.2.5-.2.8 0 .4.1.7.2.9s.3.4.5.6.4.3.7.3c.3.1.5.1.8.1.8 0 1.4-.3 1.9-.8s1-1.2 1.3-2.1l3-6.6c.2-.5.5-1.1.8-1.8s.7-1.5 1-2.3c.4-.8.7-1.6 1.1-2.4s.7-1.6 1-2.3.6-1.3.8-1.8.4-.8.4-.9c.2-.3.3-.6.5-.9.2-.2.3-.5.5-.6.2-.2.4-.3.6-.5.2-.1.5-.2.8-.3.1 0 .2-.1.2-.1 0-.1.1-.1 0-.2 0 .1 0 .1 0 0z"/></svg>